<svg width="60" height="60" viewBox="0 0 43 57" fill="none" xmlns="http://www.w3.org/2000/svg">
<path d="M27.2443 23.9278C29.9562 27.2477 30.8186 28.5622 33.5637 31.8432C27.1145 31.7791 22.1856 31.7779 15.7363 31.7352C14.6538 31.7118 13.5601 31.7988 12.4909 31.5451C9.75004 31.069 7.15831 29.4158 5.26938 26.9456C3.16936 24.2617 1.94865 20.6003 1.86619 16.8926C1.80561 13.8368 2.52456 10.7613 3.88792 8.19863C5.4919 5.21797 9.00555 3.43623 11.6667 2.05909C13.7718 4.69547 15.9123 6.45349 17.7991 9.24489C18.5562 9.7124 18.0914 9.50864 18.4674 10.4378C18.3835 10.5217 18.4656 10.4392 18.4656 10.4392C16.9461 10.8949 15.0489 10.8852 13.9108 11.3416C12.0704 12.0796 9.4362 13.787 9.46846 16.3557C9.39949 18.4418 10.1427 21.71 11.7329 22.4343C12.3391 22.758 14.1082 23.9534 14.7584 23.9496C18.542 23.943 22.1858 23.9143 26.1092 23.9297C26.2735 23.9294 27.2444 23.913 27.2443 23.9278Z" fill="#2BA5B5"/>
<path d="M33.0906 11.5622C36.598 7.79336 38.2855 3.72629 41.8374 4.41659e-05C33.3418 0.235007 26.8479 0.361371 18.3517 0.572513C16.9259 0.626031 15.4832 0.556815 14.0796 0.866668C10.4778 1.46673 7.09581 3.37502 4.65586 6.176C1.94203 9.22045 0.405979 13.3321 0.370515 17.4665C0.351005 20.8737 1.35893 24.2831 3.20574 27.1047C5.37784 30.386 9.96648 32.0326 13.4998 33.5C16.2212 30.5083 18.4999 28.5003 21.4999 25.5003C21.9999 25.0003 21.9999 25.0003 22.9999 24.0003C22.8878 23.9089 21.9999 24.0003 21.9999 24.0003C19.9999 24.0003 17.8575 23.8275 16.349 23.3477C13.9097 22.5719 11.3449 20.65 11.3367 17.7863C11.2047 15.4631 12.6777 13.1933 14.7586 12.3458C15.5509 11.9696 16.4342 11.9435 17.291 11.9312C22.5937 11.8265 27.4222 11.7073 32.5911 11.5905C32.8075 11.5868 33.0909 11.5787 33.0906 11.5622Z" fill="#1A646D"/>
<path d="M33.0906 44.24C36.598 48.0089 38.2855 52.076 41.8374 55.8022C33.3418 55.5672 26.8479 55.4409 18.3517 55.2297C16.9259 55.1762 15.4832 55.2454 14.0796 54.9356C10.4778 54.3355 7.09581 52.4272 4.65586 49.6262C1.94203 46.5818 0.405979 42.4702 0.370515 38.3357C0.351005 34.9285 1.35893 31.5191 3.20574 28.6975C5.37784 25.4162 9.96648 23.7696 13.4998 22.3023C16.2212 25.2939 18.4999 27.302 21.4999 30.302C21.9999 30.802 21.9999 30.802 22.9999 31.802C22.8878 31.8933 21.9999 31.802 21.9999 31.802C19.9999 31.802 17.8575 31.9747 16.349 32.4545C13.9097 33.2304 11.3449 35.1523 11.3367 38.016C11.2047 40.3392 12.6777 42.6089 14.7586 43.4564C15.5509 43.8326 16.4342 43.8587 17.291 43.871C22.5937 43.9757 27.4222 44.095 32.5911 44.2117C32.8075 44.2155 33.0909 44.2235 33.0906 44.24Z" fill="#1A646D"/>
</svg>
