<svg width="38" height="38" viewBox="0 0 38 38" fill="none" xmlns="http://www.w3.org/2000/svg">
<g clip-path="url(#clip0_2141_427)">
<path d="M18.9999 37.6403C18.9435 32.6422 16.916 27.8685 13.3582 24.3576C9.80047 20.8467 5.00036 18.8825 0.00195312 18.8923C2.49346 18.8992 4.96188 18.4148 7.26594 17.4667C9.57001 16.5185 11.6645 15.1254 13.4295 13.3669C15.1969 11.6291 16.5998 9.55633 17.5563 7.26977C18.5128 4.98321 19.0036 2.52884 18.9999 0.050293C18.9963 2.52899 19.487 4.98352 20.4435 7.27024C21.4 9.55697 22.803 11.63 24.5703 13.3679C26.3354 15.1263 28.4299 16.5193 30.734 17.4673C33.0381 18.4152 35.5065 18.8995 37.9979 18.8923C32.9996 18.8827 28.1996 20.847 24.6419 24.3579C21.0842 27.8687 19.0566 32.6423 18.9999 37.6403Z" fill="#2C2C2C"/>
</g>
<defs>
<clipPath id="clip0_2141_427">
<rect width="37.996" height="37.59" fill="white" transform="translate(0.00195312 0.050293)"/>
</clipPath>
</defs>
</svg>
